<?xml version="1.0" encoding="UTF-8" standalone="no"?><svg xmlns="http://www.w3.org/2000/svg" xmlns:xlink="http://www.w3.org/1999/xlink" contentScriptType="application/ecmascript" contentStyleType="text/css" height="1083px" preserveAspectRatio="none" style="width:614px;height:1083px;" version="1.1" viewBox="0 0 614 1083" width="614px" zoomAndPan="magnify"><defs><filter height="300%" id="fi9fhzs3nsroj" width="300%" x="-1" y="-1"><feGaussianBlur result="blurOut" stdDeviation="2.0"/><feColorMatrix in="blurOut" result="blurOut2" type="matrix" values="0 0 0 0 0 0 0 0 0 0 0 0 0 0 0 0 0 0 .4 0"/><feOffset dx="4.0" dy="4.0" in="blurOut2" result="blurOut3"/><feBlend in="SourceGraphic" in2="blurOut3" mode="normal"/></filter></defs><g><rect fill="#D8E7FF" height="1068.0469" style="stroke: #FFFFFF; stroke-width: 1.0;" width="195" x="24" y="4"/><text fill="#000000" font-family="sans-serif" font-size="13" font-weight="bold" lengthAdjust="spacingAndGlyphs" textLength="77" x="80.5" y="16.0669">challenger</text><rect fill="#FFEBEA" height="1068.0469" style="stroke: #FFFFFF; stroke-width: 1.0;" width="254" x="327" y="4"/><text fill="#000000" font-family="sans-serif" font-size="13" font-weight="bold" lengthAdjust="spacingAndGlyphs" textLength="44" x="429.5" y="16.0669">solver</text><rect fill="#FFFFFF" filter="url(#fi9fhzs3nsroj)" height="500.8594" style="stroke: #000000; stroke-width: 1.0;" width="10" x="45.5" y="445.7578"/><rect fill="#FFFFFF" filter="url(#fi9fhzs3nsroj)" height="543.9922" style="stroke: #000000; stroke-width: 1.0;" width="10" x="554" y="302.2266"/><rect fill="#FFFFFF" filter="url(#fi9fhzs3nsroj)" height="172.6641" style="stroke: #000000; stroke-width: 2.0;" width="266" x="321" y="489.8906"/><line style="stroke: #000000; stroke-width: 1.0; stroke-dasharray: 5.0,5.0;" x1="50" x2="50" y1="85.4297" y2="1006.75"/><line style="stroke: #000000; stroke-width: 1.0; stroke-dasharray: 5.0,5.0;" x1="149" x2="149" y1="85.4297" y2="1006.75"/><line style="stroke: #000000; stroke-width: 1.0; stroke-dasharray: 5.0,5.0;" x1="381" x2="381" y1="85.4297" y2="1006.75"/><line style="stroke: #000000; stroke-width: 1.0; stroke-dasharray: 5.0,5.0;" x1="559" x2="559" y1="85.4297" y2="1006.75"/><text fill="#000000" font-family="sans-serif" font-size="14" lengthAdjust="spacingAndGlyphs" textLength="39" x="28" y="82.1279">Timer</text><ellipse cx="50.5" cy="53.1328" fill="#FFFFFF" filter="url(#fi9fhzs3nsroj)" rx="12" ry="12" style="stroke: #000000; stroke-width: 2.0;"/><polygon fill="#000000" points="46.5,41.1328,52.5,36.1328,50.5,41.1328,52.5,46.1328,46.5,41.1328" style="stroke: #000000; stroke-width: 1.0;"/><text fill="#000000" font-family="sans-serif" font-size="14" lengthAdjust="spacingAndGlyphs" textLength="39" x="28" y="1018.7451">Timer</text><ellipse cx="50.5" cy="1038.0469" fill="#FFFFFF" filter="url(#fi9fhzs3nsroj)" rx="12" ry="12" style="stroke: #000000; stroke-width: 2.0;"/><polygon fill="#000000" points="46.5,1026.0469,52.5,1021.0469,50.5,1026.0469,52.5,1031.0469,46.5,1026.0469" style="stroke: #000000; stroke-width: 1.0;"/><rect fill="#FFFFFF" filter="url(#fi9fhzs3nsroj)" height="30.2969" style="stroke: #000000; stroke-width: 1.5;" width="88" x="103" y="50.1328"/><text fill="#000000" font-family="sans-serif" font-size="14" lengthAdjust="spacingAndGlyphs" textLength="74" x="110" y="70.1279">Challenger</text><rect fill="#FFFFFF" filter="url(#fi9fhzs3nsroj)" height="30.2969" style="stroke: #000000; stroke-width: 1.5;" width="88" x="103" y="1005.75"/><text fill="#000000" font-family="sans-serif" font-size="14" lengthAdjust="spacingAndGlyphs" textLength="74" x="110" y="1025.7451">Challenger</text><rect fill="#FFFFFF" filter="url(#fi9fhzs3nsroj)" height="30.2969" style="stroke: #000000; stroke-width: 1.5;" width="56" x="351" y="50.1328"/><text fill="#000000" font-family="sans-serif" font-size="14" lengthAdjust="spacingAndGlyphs" textLength="42" x="358" y="70.1279">Solver</text><rect fill="#FFFFFF" filter="url(#fi9fhzs3nsroj)" height="30.2969" style="stroke: #000000; stroke-width: 1.5;" width="56" x="351" y="1005.75"/><text fill="#000000" font-family="sans-serif" font-size="14" lengthAdjust="spacingAndGlyphs" textLength="42" x="358" y="1025.7451">Solver</text><text fill="#000000" font-family="sans-serif" font-size="14" lengthAdjust="spacingAndGlyphs" textLength="30" x="541" y="82.1279">Disk</text><path d="M541,33.1328 C541,23.1328 559,23.1328 559,23.1328 C559,23.1328 577,23.1328 577,33.1328 L577,59.1328 C577,69.1328 559,69.1328 559,69.1328 C559,69.1328 541,69.1328 541,59.1328 L541,33.1328 " fill="#FFFFFF" filter="url(#fi9fhzs3nsroj)" style="stroke: #000000; stroke-width: 1.5;"/><path d="M541,33.1328 C541,43.1328 559,43.1328 559,43.1328 C559,43.1328 577,43.1328 577,33.1328 " fill="none" style="stroke: #000000; stroke-width: 1.5;"/><text fill="#000000" font-family="sans-serif" font-size="14" lengthAdjust="spacingAndGlyphs" textLength="30" x="541" y="1018.7451">Disk</text><path d="M541,1032.0469 C541,1022.0469 559,1022.0469 559,1022.0469 C559,1022.0469 577,1022.0469 577,1032.0469 L577,1058.0469 C577,1068.0469 559,1068.0469 559,1068.0469 C559,1068.0469 541,1068.0469 541,1058.0469 L541,1032.0469 " fill="#FFFFFF" filter="url(#fi9fhzs3nsroj)" style="stroke: #000000; stroke-width: 1.5;"/><path d="M541,1032.0469 C541,1042.0469 559,1042.0469 559,1042.0469 C559,1042.0469 577,1042.0469 577,1032.0469 " fill="none" style="stroke: #000000; stroke-width: 1.5;"/><rect fill="#FFFFFF" filter="url(#fi9fhzs3nsroj)" height="500.8594" style="stroke: #000000; stroke-width: 1.0;" width="10" x="45.5" y="445.7578"/><rect fill="#FFFFFF" filter="url(#fi9fhzs3nsroj)" height="543.9922" style="stroke: #000000; stroke-width: 1.0;" width="10" x="554" y="302.2266"/><rect fill="#EEEEEE" filter="url(#fi9fhzs3nsroj)" height="3" style="stroke: #EEEEEE; stroke-width: 1.0;" width="599" x="3" y="115.9961"/><line style="stroke: #000000; stroke-width: 1.0;" x1="3" x2="602" y1="115.9961" y2="115.9961"/><line style="stroke: #000000; stroke-width: 1.0;" x1="3" x2="602" y1="118.9961" y2="118.9961"/><rect fill="#EEEEEE" filter="url(#fi9fhzs3nsroj)" height="23.1328" style="stroke: #000000; stroke-width: 2.0;" width="78" x="263.5" y="105.4297"/><text fill="#000000" font-family="sans-serif" font-size="13" font-weight="bold" lengthAdjust="spacingAndGlyphs" textLength="59" x="269.5" y="121.4966">Prepare</text><polygon fill="#000000" points="160,155.6953,150,159.6953,160,163.6953,156,159.6953" style="stroke: #000000; stroke-width: 1.0;"/><line style="stroke: #000000; stroke-width: 1.0;" x1="154" x2="380" y1="159.6953" y2="159.6953"/><text fill="#000000" font-family="sans-serif" font-size="13" lengthAdjust="spacingAndGlyphs" textLength="34" x="248" y="154.6294">claim</text><line style="stroke: #000000; stroke-width: 1.0;" x1="149" x2="191" y1="188.8281" y2="188.8281"/><line style="stroke: #000000; stroke-width: 1.0;" x1="191" x2="191" y1="188.8281" y2="201.8281"/><line style="stroke: #000000; stroke-width: 1.0;" x1="150" x2="191" y1="201.8281" y2="201.8281"/><polygon fill="#000000" points="160,197.8281,150,201.8281,160,205.8281,156,201.8281" style="stroke: #000000; stroke-width: 1.0;"/><text fill="#000000" font-family="sans-serif" font-size="13" lengthAdjust="spacingAndGlyphs" textLength="105" x="156" y="183.7622">Generate puzzle</text><polygon fill="#000000" points="369,226.9609,379,230.9609,369,234.9609,373,230.9609" style="stroke: #000000; stroke-width: 1.0;"/><line style="stroke: #000000; stroke-width: 1.0;" x1="149" x2="375" y1="230.9609" y2="230.9609"/><text fill="#000000" font-family="sans-serif" font-size="13" lengthAdjust="spacingAndGlyphs" textLength="41" x="244.5" y="225.895">puzzle</text><line style="stroke: #000000; stroke-width: 1.0;" x1="381" x2="423" y1="260.0938" y2="260.0938"/><line style="stroke: #000000; stroke-width: 1.0;" x1="423" x2="423" y1="260.0938" y2="273.0938"/><line style="stroke: #000000; stroke-width: 1.0;" x1="382" x2="423" y1="273.0938" y2="273.0938"/><polygon fill="#000000" points="392,269.0938,382,273.0938,392,277.0938,388,273.0938" style="stroke: #000000; stroke-width: 1.0;"/><text fill="#000000" font-family="sans-serif" font-size="13" lengthAdjust="spacingAndGlyphs" textLength="91" x="388" y="255.0278">Initialize PRNG</text><polygon fill="#000000" points="542,298.2266,552,302.2266,542,306.2266,546,302.2266" style="stroke: #000000; stroke-width: 1.0;"/><line style="stroke: #000000; stroke-width: 1.0;" x1="381" x2="548" y1="302.2266" y2="302.2266"/><text fill="#000000" font-family="sans-serif" font-size="13" lengthAdjust="spacingAndGlyphs" textLength="26" x="454.5" y="297.1606">PRN</text><polygon fill="#000000" points="160,327.3594,150,331.3594,160,335.3594,156,331.3594" style="stroke: #000000; stroke-width: 1.0;"/><line style="stroke: #000000; stroke-width: 1.0;" x1="154" x2="380" y1="331.3594" y2="331.3594"/><text fill="#000000" font-family="sans-serif" font-size="13" lengthAdjust="spacingAndGlyphs" textLength="90" x="220" y="326.2935">ready to solve</text><rect fill="#EEEEEE" filter="url(#fi9fhzs3nsroj)" height="3" style="stroke: #EEEEEE; stroke-width: 1.0;" width="599" x="3" y="359.9258"/><line style="stroke: #000000; stroke-width: 1.0;" x1="3" x2="602" y1="359.9258" y2="359.9258"/><line style="stroke: #000000; stroke-width: 1.0;" x1="3" x2="602" y1="362.9258" y2="362.9258"/><rect fill="#EEEEEE" filter="url(#fi9fhzs3nsroj)" height="23.1328" style="stroke: #000000; stroke-width: 2.0;" width="58" x="273.5" y="349.3594"/><text fill="#000000" font-family="sans-serif" font-size="13" font-weight="bold" lengthAdjust="spacingAndGlyphs" textLength="39" x="279.5" y="365.4263">Solve</text><line style="stroke: #000000; stroke-width: 1.0;" x1="149" x2="191" y1="403.625" y2="403.625"/><line style="stroke: #000000; stroke-width: 1.0;" x1="191" x2="191" y1="403.625" y2="416.625"/><line style="stroke: #000000; stroke-width: 1.0;" x1="150" x2="191" y1="416.625" y2="416.625"/><polygon fill="#000000" points="160,412.625,150,416.625,160,420.625,156,416.625" style="stroke: #000000; stroke-width: 1.0;"/><text fill="#000000" font-family="sans-serif" font-size="13" lengthAdjust="spacingAndGlyphs" textLength="218" x="156" y="398.5591">Generate preseed indices &amp; mask</text><polygon fill="#000000" points="66.5,441.7578,56.5,445.7578,66.5,449.7578,62.5,445.7578" style="stroke: #000000; stroke-width: 1.0;"/><line style="stroke: #000000; stroke-width: 1.0;" x1="60.5" x2="148" y1="445.7578" y2="445.7578"/><text fill="#000000" font-family="sans-serif" font-size="13" lengthAdjust="spacingAndGlyphs" textLength="30" x="87.25" y="440.6919">start</text><polygon fill="#000000" points="369,470.8906,379,474.8906,369,478.8906,373,474.8906" style="stroke: #000000; stroke-width: 1.0;"/><line style="stroke: #000000; stroke-width: 1.0;" x1="149" x2="375" y1="474.8906" y2="474.8906"/><text fill="#000000" font-family="sans-serif" font-size="13" lengthAdjust="spacingAndGlyphs" textLength="154" x="188" y="469.8247">preseed indices &amp; mask</text><path d="M321,489.8906 L398,489.8906 L398,496.8906 L388,506.8906 L321,506.8906 L321,489.8906 " fill="#EEEEEE" style="stroke: #000000; stroke-width: 1.0;"/><rect fill="none" height="172.6641" style="stroke: #000000; stroke-width: 2.0;" width="266" x="321" y="489.8906"/><text fill="#000000" font-family="sans-serif" font-size="13" font-weight="bold" lengthAdjust="spacingAndGlyphs" textLength="32" x="336" y="502.9575">loop</text><text fill="#000000" font-family="sans-serif" font-size="11" font-weight="bold" lengthAdjust="spacingAndGlyphs" textLength="66" x="413" y="502.1011">[n rounds]</text><polygon fill="#000000" points="542,524.1563,552,528.1563,542,532.1563,546,528.1563" style="stroke: #000000; stroke-width: 1.0;"/><line style="stroke: #000000; stroke-width: 1.0;" x1="381" x2="548" y1="528.1563" y2="528.1563"/><text fill="#000000" font-family="sans-serif" font-size="13" lengthAdjust="spacingAndGlyphs" textLength="136" x="399.5" y="523.0903">Read preseed indices</text><line style="stroke: #000000; stroke-width: 1.0;" x1="381" x2="423" y1="557.2891" y2="557.2891"/><line style="stroke: #000000; stroke-width: 1.0;" x1="423" x2="423" y1="557.2891" y2="570.2891"/><line style="stroke: #000000; stroke-width: 1.0;" x1="382" x2="423" y1="570.2891" y2="570.2891"/><polygon fill="#000000" points="392,566.2891,382,570.2891,392,574.2891,388,570.2891" style="stroke: #000000; stroke-width: 1.0;"/><text fill="#000000" font-family="sans-serif" font-size="13" lengthAdjust="spacingAndGlyphs" textLength="115" x="388" y="552.2231">Compute preseed</text><line style="stroke: #000000; stroke-width: 1.0;" x1="381" x2="423" y1="599.4219" y2="599.4219"/><line style="stroke: #000000; stroke-width: 1.0;" x1="423" x2="423" y1="599.4219" y2="612.4219"/><line style="stroke: #000000; stroke-width: 1.0;" x1="382" x2="423" y1="612.4219" y2="612.4219"/><polygon fill="#000000" points="392,608.4219,382,612.4219,392,616.4219,388,612.4219" style="stroke: #000000; stroke-width: 1.0;"/><text fill="#000000" font-family="sans-serif" font-size="13" lengthAdjust="spacingAndGlyphs" textLength="91" x="388" y="594.356">Initialize PRNG</text><line style="stroke: #000000; stroke-width: 1.0;" x1="381" x2="423" y1="641.5547" y2="641.5547"/><line style="stroke: #000000; stroke-width: 1.0;" x1="423" x2="423" y1="641.5547" y2="654.5547"/><line style="stroke: #000000; stroke-width: 1.0;" x1="382" x2="423" y1="654.5547" y2="654.5547"/><polygon fill="#000000" points="392,650.5547,382,654.5547,392,658.5547,388,654.5547" style="stroke: #000000; stroke-width: 1.0;"/><text fill="#000000" font-family="sans-serif" font-size="13" lengthAdjust="spacingAndGlyphs" textLength="164" x="388" y="636.4888">Generate preseed indices</text><polygon fill="#000000" points="542,686.6875,552,690.6875,542,694.6875,546,690.6875" style="stroke: #000000; stroke-width: 1.0;"/><line style="stroke: #000000; stroke-width: 1.0;" x1="381" x2="548" y1="690.6875" y2="690.6875"/><text fill="#000000" font-family="sans-serif" font-size="13" lengthAdjust="spacingAndGlyphs" textLength="136" x="399.5" y="685.6216">Read preseed indices</text><line style="stroke: #000000; stroke-width: 1.0;" x1="381" x2="423" y1="719.8203" y2="719.8203"/><line style="stroke: #000000; stroke-width: 1.0;" x1="423" x2="423" y1="719.8203" y2="732.8203"/><line style="stroke: #000000; stroke-width: 1.0;" x1="382" x2="423" y1="732.8203" y2="732.8203"/><polygon fill="#000000" points="392,728.8203,382,732.8203,392,736.8203,388,732.8203" style="stroke: #000000; stroke-width: 1.0;"/><text fill="#000000" font-family="sans-serif" font-size="13" lengthAdjust="spacingAndGlyphs" textLength="115" x="388" y="714.7544">Compute preseed</text><line style="stroke: #000000; stroke-width: 1.0;" x1="381" x2="423" y1="761.9531" y2="761.9531"/><line style="stroke: #000000; stroke-width: 1.0;" x1="423" x2="423" y1="761.9531" y2="774.9531"/><line style="stroke: #000000; stroke-width: 1.0;" x1="382" x2="423" y1="774.9531" y2="774.9531"/><polygon fill="#000000" points="392,770.9531,382,774.9531,392,778.9531,388,774.9531" style="stroke: #000000; stroke-width: 1.0;"/><text fill="#000000" font-family="sans-serif" font-size="13" lengthAdjust="spacingAndGlyphs" textLength="91" x="388" y="756.8872">Initialize PRNG</text><line style="stroke: #000000; stroke-width: 1.0;" x1="381" x2="423" y1="804.0859" y2="804.0859"/><line style="stroke: #000000; stroke-width: 1.0;" x1="423" x2="423" y1="804.0859" y2="817.0859"/><line style="stroke: #000000; stroke-width: 1.0;" x1="382" x2="423" y1="817.0859" y2="817.0859"/><polygon fill="#000000" points="392,813.0859,382,817.0859,392,821.0859,388,817.0859" style="stroke: #000000; stroke-width: 1.0;"/><text fill="#000000" font-family="sans-serif" font-size="13" lengthAdjust="spacingAndGlyphs" textLength="161" x="388" y="799.02">Compute solution indices</text><polygon fill="#000000" points="547,842.2188,557,846.2188,547,850.2188,551,846.2188" style="stroke: #000000; stroke-width: 1.0;"/><line style="stroke: #000000; stroke-width: 1.0;" x1="381" x2="553" y1="846.2188" y2="846.2188"/><text fill="#000000" font-family="sans-serif" font-size="13" lengthAdjust="spacingAndGlyphs" textLength="134" x="403" y="841.1528">Read solution indices</text><line style="stroke: #000000; stroke-width: 1.0;" x1="381" x2="423" y1="875.3516" y2="875.3516"/><line style="stroke: #000000; stroke-width: 1.0;" x1="423" x2="423" y1="875.3516" y2="888.3516"/><line style="stroke: #000000; stroke-width: 1.0;" x1="382" x2="423" y1="888.3516" y2="888.3516"/><polygon fill="#000000" points="392,884.3516,382,888.3516,392,892.3516,388,888.3516" style="stroke: #000000; stroke-width: 1.0;"/><text fill="#000000" font-family="sans-serif" font-size="13" lengthAdjust="spacingAndGlyphs" textLength="74" x="388" y="870.2856">Apply mask</text><polygon fill="#000000" points="160,913.4844,150,917.4844,160,921.4844,156,917.4844" style="stroke: #000000; stroke-width: 1.0;"/><line style="stroke: #000000; stroke-width: 1.0;" x1="154" x2="380" y1="917.4844" y2="917.4844"/><text fill="#000000" font-family="sans-serif" font-size="13" lengthAdjust="spacingAndGlyphs" textLength="50" x="240" y="912.4185">solution</text><polygon fill="#000000" points="61.5,942.6172,51.5,946.6172,61.5,950.6172,57.5,946.6172" style="stroke: #000000; stroke-width: 1.0;"/><line style="stroke: #000000; stroke-width: 1.0;" x1="55.5" x2="148" y1="946.6172" y2="946.6172"/><text fill="#000000" font-family="sans-serif" font-size="13" lengthAdjust="spacingAndGlyphs" textLength="28" x="85.75" y="941.5513">stop</text><line style="stroke: #000000; stroke-width: 1.0;" x1="149" x2="191" y1="975.75" y2="975.75"/><line style="stroke: #000000; stroke-width: 1.0;" x1="191" x2="191" y1="975.75" y2="988.75"/><line style="stroke: #000000; stroke-width: 1.0;" x1="150" x2="191" y1="988.75" y2="988.75"/><polygon fill="#000000" points="160,984.75,150,988.75,160,992.75,156,988.75" style="stroke: #000000; stroke-width: 1.0;"/><text fill="#000000" font-family="sans-serif" font-size="13" lengthAdjust="spacingAndGlyphs" textLength="165" x="156" y="970.6841">Check solution &amp; duration</text><!--
@startuml

skinparam Control {
	BorderColor Black
	BackgroundColor White
}

skinparam Database {
	BorderColor Black
	BackgroundColor White
}

skinparam BoxPadding 20

skinparam Sequence {
	MessageAlign center

	ArrowColor Black

	LifeLineBorderColor Black

	ParticipantBorderColor Black
	ParticipantBackgroundColor White
	ParticipantPadding 20

	BoxBorderColor White
}

box challenger #d8e7ff
	control Timer
	participant Challenger
end box

box solver #ffebea
	participant Solver
	database Disk
end box

== Prepare ==

Solver -> Challenger : claim

Challenger -> Challenger : Generate puzzle

Challenger -> Solver : puzzle

Solver -> Solver : Initialize PRNG

Solver -> Disk : PRN
activate Disk

Solver -> Challenger : ready to solve

== Solve ==

Challenger -> Challenger : Generate preseed indices & mask

Challenger -> Timer : start
activate Timer

Challenger -> Solver : preseed indices & mask

loop n rounds
	Solver -> Disk : Read preseed indices
	Solver -> Solver : Compute preseed
	Solver -> Solver : Initialize PRNG
	Solver -> Solver : Generate preseed indices
end

Solver -> Disk : Read preseed indices
Solver -> Solver : Compute preseed
Solver -> Solver : Initialize PRNG

Solver -> Solver : Compute solution indices

Solver -> Disk : Read solution indices
deactivate Disk

Solver -> Solver : Apply mask

Solver -> Challenger : solution

Challenger -> Timer : stop
deactivate Timer

Challenger -> Challenger : Check solution & duration

@enduml

PlantUML version 1.2019.06(Fri May 24 13:10:25 EDT 2019)
(GPLV2 source distribution)
Java Runtime: OpenJDK Runtime Environment
JVM: OpenJDK 64-Bit Server VM
Java Version: 1.8.0_202-b00
Operating System: Linux
OS Version: 4.19.47_1
Default Encoding: UTF-8
Language: en
Country: US
--></g></svg>